<svg xmlns="http://www.w3.org/2000/svg" width="22" height="22" viewBox="0 0 22 22"><defs><style>.a{fill:#c2cddb;}</style></defs><path class="a" d="M97.875,22A4.126,4.126,0,0,0,102,17.875V4.125A4.126,4.126,0,0,0,97.875,0H84.125A4.126,4.126,0,0,0,80,4.125v13.75A4.126,4.126,0,0,0,84.125,22ZM85.042,7.133h-.014a1.891,1.891,0,1,1,.014,0ZM86.7,18.419H83.395V8.479H86.7ZM91.83,9.882l-.028.044A3.266,3.266,0,0,1,94.8,8.25c2.177,0,3.81,1.418,3.81,4.469v5.7H95.3V13.105c0-1.346-.473-2.249-1.661-2.249a1.826,1.826,0,0,0-1.7,1.2,2.324,2.324,0,0,0-.1.8v5.557H88.522c.043-9.009,0-9.94,0-9.94h3.309Z" transform="translate(-80)"/></svg>