<svg xmlns="http://www.w3.org/2000/svg" width="16.5" height="16.5" viewBox="0 0 16.5 16.5"><defs><style>.a{fill:#7c8796;stroke:#7c8796;stroke-width:0.5px;}</style></defs><path class="a" d="M858.727,25.141l-4.845-4.891a6.492,6.492,0,0,0,1.059-1.836,6.033,6.033,0,0,0,.389-2.164,6.1,6.1,0,0,0-.491-2.437,6.247,6.247,0,0,0-1.34-1.984,6.387,6.387,0,0,0-1.986-1.336,6.208,6.208,0,0,0-4.845,0,6.387,6.387,0,0,0-1.986,1.336,6.268,6.268,0,0,0,0,8.844,6.387,6.387,0,0,0,1.986,1.336,6.237,6.237,0,0,0,4.643.086,6.308,6.308,0,0,0,1.87-1.125l4.83,4.875a.489.489,0,0,0,.717,0,.511.511,0,0,0,0-.7ZM849.1,21.516a5.108,5.108,0,0,1-2.049-.414,5.228,5.228,0,0,1-1.667-1.133,5.43,5.43,0,0,1-1.122-1.672,5.281,5.281,0,0,1,0-4.094,5.43,5.43,0,0,1,1.122-1.672A5.228,5.228,0,0,1,847.05,11.4a5.237,5.237,0,0,1,4.082,0,5.229,5.229,0,0,1,1.667,1.133,5.43,5.43,0,0,1,1.122,1.672,5.281,5.281,0,0,1,0,4.094,5.43,5.43,0,0,1-1.122,1.672,5.229,5.229,0,0,1-1.667,1.133A5.07,5.07,0,0,1,849.1,21.516Z" transform="translate(-842.617 -9.75)"/></svg>