<svg xmlns="http://www.w3.org/2000/svg" width="22" height="22" viewBox="0 0 22 22"><defs><style>.a{fill:#c2cddb;}</style></defs><path class="a" d="M57.875,22A4.126,4.126,0,0,0,62,17.875V4.125A4.126,4.126,0,0,0,57.875,0H44.125A4.126,4.126,0,0,0,40,4.125v13.75A4.126,4.126,0,0,0,44.125,22Zm-9.6-4.583a8.573,8.573,0,0,1-4.612-1.346,5.83,5.83,0,0,0,.716.043,6.058,6.058,0,0,0,3.738-1.289,3.026,3.026,0,0,1-2.807-2.091,3.694,3.694,0,0,0,.559.057,2.511,2.511,0,0,0,.73-.115,3.063,3.063,0,0,1-2.478-2.951V9.7h0a3.6,3.6,0,0,0,1.432.372,2.962,2.962,0,0,1-1.3-2.507,3.053,3.053,0,0,1,.415-1.518A8.546,8.546,0,0,0,50.885,9.2a2.735,2.735,0,0,1-.072-.687,3.009,3.009,0,0,1,5.2-2.062,5.989,5.989,0,0,0,1.919-.73A3.041,3.041,0,0,1,56.6,7.391,6.347,6.347,0,0,0,58.333,6.9a5.784,5.784,0,0,1-1.5,1.561,3.49,3.49,0,0,1,.014.387A8.51,8.51,0,0,1,48.279,17.417Z" transform="translate(-40)"/></svg>