<svg xmlns="http://www.w3.org/2000/svg" width="22" height="22" viewBox="0 0 22 22"><defs><style>.a{fill:#c2cddb;}</style></defs><path class="a" d="M137.875,22A4.126,4.126,0,0,0,142,17.875V4.125A4.126,4.126,0,0,0,137.875,0h-13.75A4.126,4.126,0,0,0,120,4.125v13.75A4.126,4.126,0,0,0,124.125,22ZM128.064,8.479H127V5.6a18.43,18.43,0,0,0-.659-2.263l-.673-1.977h1.117l.759,2.793.73-2.793h1.074L128.064,5.6Zm2.721.072a1.3,1.3,0,0,1-1.117-.544,2.1,2.1,0,0,1-.3-1.246V4.9a2.1,2.1,0,0,1,.3-1.246,1.3,1.3,0,0,1,1.117-.544,1.333,1.333,0,0,1,1.117.544,2.1,2.1,0,0,1,.3,1.246V6.76a2.072,2.072,0,0,1-.3,1.246A1.333,1.333,0,0,1,130.785,8.551Zm2.908,0a.6.6,0,0,1-.616-.387,2.586,2.586,0,0,1-.086-.788V3.18h.96v3.9a1.768,1.768,0,0,0,.014.372c.014.158.1.229.229.229.186,0,.387-.143.6-.444V3.18h.96v5.3h-.96V7.906A1.564,1.564,0,0,1,133.693,8.551Zm-2.908-.874c.3,0,.458-.243.458-.73V4.712c0-.487-.158-.745-.458-.745s-.458.258-.458.745V6.947C130.327,7.434,130.47,7.677,130.785,7.677Zm1.057,12.732H131a54.175,54.175,0,0,1-5.9-.215,2,2,0,0,1-1.69-1.547,16.272,16.272,0,0,1-.286-3.724,16.983,16.983,0,0,1,.286-3.724,1.961,1.961,0,0,1,1.7-1.547A53.782,53.782,0,0,1,131,9.439a53.913,53.913,0,0,1,5.9.215,1.992,1.992,0,0,1,1.7,1.547,15.036,15.036,0,0,1,.272,3.259v.465a16.271,16.271,0,0,1-.286,3.724A2,2,0,0,1,136.9,20.2,47.425,47.425,0,0,1,131.842,20.41Zm-5.368-2.076V12.275h1.146v-1H124.3v1h1.117v6.059Zm6.775.072a.737.737,0,0,0,.759-.6,3.732,3.732,0,0,0,.1-1.046V14.667a3.717,3.717,0,0,0-.1-1.06.737.737,0,0,0-.759-.6,1.3,1.3,0,0,0-.974.573V11.272h-.96v7.061h.96v-.516A1.319,1.319,0,0,0,133.249,18.4Zm3.065,0a1.3,1.3,0,0,0,1.146-.573,1.324,1.324,0,0,0,.215-.573,4.871,4.871,0,0,0,.029-.616v-.129h-.974c0,.372-.014.587-.014.645a.419.419,0,0,1-.43.372c-.329,0-.487-.243-.487-.73V15.87h1.9V14.781a2.053,2.053,0,0,0-.3-1.232,1.315,1.315,0,0,0-1.117-.544,1.368,1.368,0,0,0-1.146.544,2.06,2.06,0,0,0-.286,1.232v1.848a2.023,2.023,0,0,0,.3,1.232A1.377,1.377,0,0,0,136.314,18.4Zm-7.863,0a1.515,1.515,0,0,0,1.089-.645v.573h.96V13.077h-.96v4.01c-.215.3-.4.444-.6.444q-.193,0-.215-.215a1.175,1.175,0,0,1-.014-.272V13.077h-.945V17.23a2.419,2.419,0,0,0,.086.773A.569.569,0,0,0,128.451,18.4Zm4.3-.874a.67.67,0,0,1-.473-.229V14.094a.67.67,0,0,1,.473-.229c.272,0,.415.243.415.716v2.249C133.163,17.3,133.02,17.531,132.747,17.531Zm4-2.449H135.8V14.6q0-.73.473-.73t.473.73Z" transform="translate(-120)"/></svg>